<?xml version="1.0" encoding="UTF-8"?>
<svg id="Layer_1" data-name="Layer 1" xmlns="http://www.w3.org/2000/svg" viewBox="0 0 1920 1080">
  <defs>
    <style>
      .cls-1 {
        fill: #cff691;
      }

      .cls-2 {
        fill: #072317;
      }

      .cls-3 {
        fill: #5fd5b9;
      }

      .cls-4 {
        fill: #1c5c43;
      }
    </style>
  </defs>
  <g>
    <path class="cls-2" d="M731.77,575.68h-93.68c-3.32,0-4.98-1.66-4.98-4.98v-178.28c0-3.32,1.66-4.98,4.98-4.98h93.68c3.12,0,4.68,1.66,4.68,4.98v14.93c0,3.32-1.56,4.98-4.68,4.98h-66.75c-2.34,0-3.51.98-3.51,2.93v49.47c0,1.95,1.17,2.93,3.51,2.93h56.5c3.51,0,5.27,1.66,5.27,4.98v14.93c0,3.32-1.76,4.98-5.27,4.98h-56.5c-2.34,0-3.51.98-3.51,2.93v52.11c0,2.15,1.17,3.22,3.51,3.22h66.75c3.12,0,4.68,1.66,4.68,4.98v14.93c0,3.32-1.56,4.98-4.68,4.98Z"/>
    <path class="cls-2" d="M826.91,494.01h-57.96c-3.32,0-4.98-1.76-4.98-5.27v-12.88c0-3.51,1.66-5.27,4.98-5.27h57.96c3.32,0,4.98,1.76,4.98,5.27v12.88c0,3.51-1.66,5.27-4.98,5.27Z"/>
    <path class="cls-2" d="M916.49,575.68h-18.44c-3.51,0-5.27-1.66-5.27-4.98v-155.45c0-1.95-.98-2.93-2.93-2.93h-36.89c-3.51,0-5.27-1.66-5.27-4.98v-14.93c0-3.32,1.76-4.98,5.27-4.98h108.61c3.51,0,5.27,1.66,5.27,4.98v14.93c0,3.32-1.76,4.98-5.27,4.98h-36.89c-2.15,0-3.22.98-3.22,2.93v155.45c0,3.32-1.66,4.98-4.98,4.98Z"/>
    <path class="cls-2" d="M1042.95,575.68h-11.42c-14.45,0-25.62-4-33.52-12-7.9-8-11.86-19.12-11.86-33.37v-58.55c0-14.44,3.95-25.62,11.86-33.52,7.9-7.9,19.07-11.86,33.52-11.86h65.58c3.51,0,5.27,1.66,5.27,4.98v139.35c0,3.32-1.76,4.98-5.27,4.98h-18.44c-3.32,0-4.98-1.66-4.98-4.98v-10.54h-1.17c-4.68,10.35-14.54,15.52-29.57,15.52ZM1073.69,525.92v-71.72c0-1.95-1.08-2.93-3.22-2.93h-34.84c-14.05,0-21.08,7.22-21.08,21.66v56.21c0,14.45,7.03,21.66,21.08,21.66h14.05c16,0,24-8.29,24-24.88Z"/>
    <path class="cls-2" d="M1192.84,575.68h-11.42c-14.45,0-25.62-4-33.52-12-7.9-8-11.86-19.12-11.86-33.37v-58.55c0-14.44,3.95-25.62,11.86-33.52,7.9-7.9,19.07-11.86,33.52-11.86h65.58c3.51,0,5.27,1.66,5.27,4.98v139.35c0,3.32-1.76,4.98-5.27,4.98h-18.44c-3.32,0-4.98-1.66-4.98-4.98v-10.54h-1.17c-4.68,10.35-14.54,15.52-29.57,15.52ZM1223.57,525.92v-71.72c0-1.95-1.08-2.93-3.22-2.93h-34.84c-14.05,0-21.08,7.22-21.08,21.66v56.21c0,14.45,7.03,21.66,21.08,21.66h14.05c16,0,24-8.29,24-24.88Z"/>
    <path class="cls-2" d="M1313.74,575.68h-18.44c-3.32,0-4.98-1.66-4.98-4.98v-195.85c0-3.32,1.66-4.98,4.98-4.98h18.44c3.32,0,4.98,1.66,4.98,4.98v195.85c0,3.32-1.66,4.98-4.98,4.98Z"/>
    <path class="cls-2" d="M1462.74,575.68h-63.23c-14.45,0-25.62-4-33.52-12-7.9-8-11.86-19.12-11.86-33.37v-58.55c0-14.44,3.95-25.62,11.86-33.52,7.9-7.9,19.07-11.86,33.52-11.86h24c14.44,0,25.66,3.95,33.67,11.86,8,7.9,12,19.08,12,33.52v37.18c0,3.51-1.76,5.27-5.27,5.27h-78.46c-2.15,0-3.22.98-3.22,2.93v12.59c0,14.25,7.12,21.37,21.37,21.37h59.13c3.51,0,5.27,1.76,5.27,5.27v14.64c0,3.12-1.76,4.68-5.27,4.68ZM1385.46,494.3h52.4c1.95,0,2.93-.97,2.93-2.93v-18.74c0-7.42-1.66-12.83-4.98-16.25-3.32-3.41-8.69-5.12-16.1-5.12h-16.1c-7.42,0-12.79,1.71-16.1,5.12-3.32,3.42-4.98,8.83-4.98,16.25v18.74c0,1.95.97,2.93,2.93,2.93Z"/>
    <path class="cls-2" d="M1524.81,575.68h-18.44c-3.32,0-4.98-1.66-4.98-4.98v-139.35c0-3.32,1.66-4.98,4.98-4.98h18.44c3.32,0,4.98,1.66,4.98,4.98v10.54h1.17c4.68-10.34,14.54-15.52,29.57-15.52h12.88c14.24,0,25.18,3.91,32.79,11.71,7.61,7.81,11.42,19.03,11.42,33.67v98.95c0,3.32-1.76,4.98-5.27,4.98h-18.44c-3.32,0-4.98-1.66-4.98-4.98v-97.78c0-14.44-7.13-21.66-21.37-21.66h-13.76c-16,0-24,8.3-24,24.88v94.56c0,3.32-1.66,4.98-4.98,4.98Z"/>
    <path class="cls-2" d="M1657.13,451.27h-14.05c-1.95,0-3.27-.34-3.95-1.02-.69-.68-1.02-1.9-1.02-3.66v-15.22c0-3.32,1.66-4.98,4.98-4.98h14.05c1.95,0,2.93-.97,2.93-2.93v-26.35c0-3.32,1.76-4.98,5.27-4.98h18.44c3.32,0,4.98,1.66,4.98,4.98v26.35c0,1.95,1.07,2.93,3.22,2.93h27.23c3.51,0,5.27,1.66,5.27,4.98v15.22c0,3.12-1.76,4.68-5.27,4.68h-27.23c-2.15,0-3.22.98-3.22,2.93v75.24c0,14.25,7.32,21.37,21.96,21.37h11.42c3.51,0,5.27,1.66,5.27,4.98v15.22c0,3.12-1.76,4.68-5.27,4.68h-15.81c-14.45,0-25.76-3.9-33.96-11.71-8.2-7.8-12.29-18.83-12.29-33.08v-76.7c0-1.95-.98-2.93-2.93-2.93Z"/>
  </g>
  <g>
    <path class="cls-1" d="M448.26,437.6H187.53c6.63-33.4-3.36-63.19,5.86-97.13,4.97-18.21,15.44-37.6,36.96-59.4h260.72c-61.67,62.44-32.63,105.24-42.82,156.53Z"/>
    <path class="cls-4" d="M450.68,602.18H189.96c.32-29.59-3.84-60.12-41.1-97.86,24.45-24.75,34.65-46.41,38.67-66.73h260.72c-4.02,20.32-14.21,41.98-38.67,66.73,37.26,37.74,41.41,68.27,41.1,97.86Z"/>
    <path class="cls-3" d="M491.08,727.58H230.36c-20.64-20.89-31.13-39.6-36.31-57.15-7.11-24-4.31-45.84-4.09-68.25h260.72c-.39,38.8-8.47,75.95,40.39,125.4Z"/>
  </g>
</svg>