<?xml version="1.0" encoding="UTF-8"?>
<svg id="Layer_1" data-name="Layer 1" xmlns="http://www.w3.org/2000/svg" viewBox="0 0 729.6 821.17">
  <defs>
    <style>
      .cls-1 {
        fill: #cff691;
      }

      .cls-2 {
        fill: #5fd5b9;
      }

      .cls-3 {
        fill: #1c5c43;
      }
    </style>
  </defs>
  <path class="cls-1" d="M560.92,268.63H150.6c10.43-52.56-5.29-99.44,9.22-152.86,7.83-28.66,24.3-59.17,58.17-93.48h410.32c-97.05,98.26-51.35,165.62-67.39,246.34Z"/>
  <path class="cls-3" d="M564.74,527.65H154.42c.5-46.56-6.04-94.62-64.68-154.01,38.48-38.95,54.53-73.04,60.85-105.02h410.32c-6.32,31.98-22.37,66.07-60.85,105.02,58.64,59.39,65.18,107.45,64.68,154.01Z"/>
  <path class="cls-2" d="M628.31,725.01H217.99c-32.48-32.87-48.99-62.32-57.14-89.94-11.18-37.77-6.79-72.15-6.43-107.41h410.32c-.61,61.07-13.33,119.52,63.57,197.35Z"/>
</svg>