<?xml version="1.0" encoding="UTF-8"?>
<svg id="Layer_1" data-name="Layer 1" xmlns="http://www.w3.org/2000/svg" viewBox="0 0 890.67 758.78">
  <g>
    <path d="M253.4,352.32c-23.77,60.12-12.91,142.56-71.42,173.84-.68.37-1.36.72-2.07,1.07-64.65,30.41-68.45-87.48-89.42-138.8-3.02-9.88-6.31-19.45-10.2-28.41-3.44-7.92-5.36-16.42-5.37-25.05v-1.17c0-6.36.57-12.48,1.71-18.33,1.14-5.86,2.86-11.45,5.13-16.82,0-.04.04-.04.04-.07,14.77-31.72,43.96-58.23,79.96-68.16,6.86-1.9,13.96-3.19,21.24-3.8,5.02,0,9.76.66,14.24,1.88l3.37,1.05.18.05c20.71,7.28,35.15,26.96,43.3,48.92.31.87.63,1.75.94,2.64.74,2.16,1.44,4.33,2.05,6.51,1.24,4.24,2.23,8.52,2.99,12.76.61,3.32,1.07,6.62,1.38,9.87-7.46.12-15.24-3.54-23.2-7.19-12.31-5.66-23.6-13.31-33.3-22.76-1.39-1.35-2.83-2.78-4.34-4.29-6.32-7.58-13.9-10.12-21.76-9.28-15.8,1.64-32.75,16.87-42.89,32.1-3.5,5.81-5.59,12.04-6.58,18.55-2.21,14,.53,29.32,4.35,45.35,6.73,27.55,25.74,54.16,56.17,46.56,3.63-.9,6.62-2.42,9.11-4.37,18.09-14.07,10.75-51.19,40.92-51.89.57-.04,1.14-.04,1.73-.02,10.84-.52,21.72-.74,21.72-.74Z"/>
    <path d="M568.36,359.42l-.35-.57c6.31-2.71,11.95-6.23,16.82-10.7.18-.15.33-.33.52-.5,5.48-5.13,9.79-11.21,12.91-18.24,3.08-7.04,4.59-14.75,4.59-23.2s-1.55-16.14-4.76-23.16c-3.15-7.04-7.45-13.13-12.85-18.26-5.4-5.18-11.86-9.16-19.31-11.99-7.47-2.84-15.56-4.26-24.34-4.26h-83.13v170.68h40.68v-55.34h26.77l.76,1.33,31.42,54.01h46.05l-35.77-59.82ZM499.13,283.06h37.3c3.43,0,6.62.53,9.55,1.55,2.9,1.03,5.51,2.6,7.84,4.65,2.32,2.05,4.11,4.52,5.4,7.45,1.29,2.93,1.94,6.16,1.94,9.77,0,3.26-.65,6.36-1.94,9.28-1.29,2.93-3.01,5.44-5.14,7.58-.29.29-.65.64-.98.87-1.94,1.79-4.19,3.15-6.73,4.15-3.01,1.22-6.32,1.83-9.94,1.83h-37.3v-47.12Z"/>
    <path d="M740.81,248.56l-.46,1.33-43.28,124.68-.48-1.42-43.28-124.58h-43.24l.5,1.33,64.12,169.36h44.75l64.62-170.68h-43.24Z"/>
    <path d="M809.52,385.88c-4.09-4.04-9.16-6.05-15.16-6.05s-11.3,2.01-15.34,6.05c-.11.11-.22.22-.3.35-3.84,3.95-5.73,8.78-5.73,14.44,0,6.01,2.01,11.03,6.03,15.07,4.04,4.04,9.16,6.05,15.34,6.05,5.55,0,10.29-1.72,14.22-5.22.33-.26.65-.53.94-.83,4.15-4.04,6.21-9.05,6.21-15.07s-2.07-10.75-6.21-14.79Z"/>
  </g>
  <path d="M428.78,356.73c-.84,6.6-2.43,13.09-4.62,19.37-17.42,50.04-43.96,124.69-94.51,110.25-49.07-14.44-49.79-71.71-52.85-126.13-.28-4.76-.5-9.46-.72-14.11-.28-6.27-.94-20.12-1.35-30.5l-.02.02c-.02-.31-.04-.61-.06-.9-1.84-35.98-7.84-54.88-12.35-64.26,0-.02-.02-.02-.02-.04-2.4-4.98-4.39-7.27-5.11-8.02-.06-.07-.09-.09-.13-.13-.02-.04-.04-.05-.06-.05h-.02s-.04-.05-.06-.05h-.02v-.02l-.02-.02s9.87,2.16,17.52,4.26c7.67,2.1,7.95,2.43,10.9,3.47,9.46,3.28,13.98,8.96,17.79,14.4,6.49,9.2,9.96,21.67,9.79,35.44,3.93,31.93-5.02,62.96,4.47,91.11,3.42,10.14,12.55,17.37,23.23,18.11,6.95.48,14.17-.63,19.49-2.41,26.63-11.41,30.43-49.44,29.93-77.28,0-11.6-.57-22.79-.7-31.99v-5.14c0-3.16.5-6.3,1.48-9.31l.02-.05c6.68-22.33,23.95-20.23,38.67-29.47v65.41c0,2.84.08,7.49.28,10.33.6,8.88.25,18.24-.96,27.72Z"/>
</svg>
